<?xml version="1.0" encoding="UTF-8"?>
<svg id="_图层_2" data-name="图层 2" xmlns="http://www.w3.org/2000/svg" viewBox="0 0 741.04 153.62">
  <g id="_图层_1-2" data-name="图层 1">
    <g>
      <g>
        <path d="M271.51,59.56c-7.72-4.52-16.1-6.78-25.14-6.78s-17.42,2.26-25.14,6.78c-7.72,4.52-13.84,10.64-18.36,18.36-4.52,7.72-6.78,16.15-6.78,25.27s2.26,17.51,6.78,25.14c4.52,7.63,10.62,13.69,18.3,18.17,7.68,4.48,16.08,6.71,25.21,6.71s17.53-2.24,25.21-6.71c7.68-4.48,13.78-10.53,18.3-18.17,4.52-7.63,6.78-16.01,6.78-25.14s-2.26-17.55-6.78-25.27c-4.52-7.72-10.64-13.84-18.36-18.36ZM274.54,120.5c-2.72,5.05-6.52,8.97-11.39,11.78-4.87,2.81-10.46,4.21-16.78,4.21s-11.91-1.4-16.78-4.21c-4.87-2.81-8.67-6.73-11.39-11.78-2.72-5.05-4.08-10.81-4.08-17.31s1.36-12.28,4.08-17.38c2.72-5.09,6.54-9.08,11.45-11.98,4.91-2.9,10.49-4.34,16.72-4.34s11.8,1.45,16.72,4.34c4.91,2.9,8.73,6.89,11.45,11.98,2.72,5.09,4.08,10.88,4.08,17.38s-1.36,12.26-4.08,17.31Z"/>
        <path d="M412.23,82h-17.38c-.09,0-.18.02-.26.07-.09.05-.13.11-.13.2l-16.58,44.36-14.61-44.36c0-.18-.13-.26-.4-.26h-10.53c-.26,0-.39.09-.39.26l-14.61,44.36-16.59-44.36c0-.09-.04-.15-.13-.2-.09-.04-.18-.07-.26-.07h-17.38c-.09,0-.13.02-.13.07v.2l27.12,69.24c0,.18.13.26.4.26h13.16c.09,0,.17-.02.26-.07.09-.04.13-.11.13-.2l13.69-44.1,13.69,44.1c0,.09.04.15.13.2.09.05.17.07.26.07h13.16c.26,0,.39-.09.39-.26l27.12-69.24v-.2s-.04-.07-.13-.07Z"/>
        <path d="M437.63,51.99h-16.32c-.09,0-.15.02-.2.07-.05.04-.07.11-.07.2v99.25c0,.09.02.15.07.2.04.05.11.07.2.07h16.32c.09,0,.15-.02.2-.07.04-.04.07-.11.07-.2V52.25c0-.09-.02-.15-.07-.2-.04-.04-.11-.07-.2-.07Z"/>
        <path d="M504.11,96.21c-3.16-1.14-7.81-1.97-13.95-2.5-1.58-.17-3.16-.37-4.74-.59-1.58-.22-2.85-.46-3.82-.72-2.72-.7-4.92-2.08-6.58-4.15-1.67-2.06-2.5-4.39-2.5-6.98s.96-4.94,2.9-7.04c2.72-2.98,5.94-4.76,9.67-5.33,3.73-.57,7.33.22,10.79,2.37,3.47,2.15,6.12,5.55,7.96,10.2.09.09.15.15.2.2.04.04.11.02.2-.07l15.8-6.06c.09-.09.15-.15.2-.2.04-.04.02-.11-.07-.2-3.25-8.16-8.49-14.17-15.73-18.03-7.24-3.86-14.83-5.26-22.77-4.21-7.94,1.05-14.41,4.39-19.42,10-4.56,5-6.84,10.84-6.84,17.51s2.02,12.62,6.05,17.84c4.04,5.22,9.26,8.4,15.66,9.54,5,.79,8.07,1.23,9.21,1.32,5.7.79,9.56,1.54,11.58,2.24,2.63.97,4.67,2.41,6.12,4.34,1.45,1.93,2.13,4.1,2.04,6.52-.09,2.42-.92,4.8-2.5,7.17-2.98,4.39-7.2,6.96-12.64,7.7-5.44.75-10.44-.28-15.01-3.09-4.56-2.81-7.24-6.8-8.03-11.98,0-.09-.02-.15-.07-.2-.05-.04-.11-.07-.2-.07l-16.98,2.37c-.09,0-.15.02-.2.07s-.07.11-.07.2c1.4,9.65,6.56,17.11,15.47,22.38,8.91,5.26,18.56,7.26,28.96,5.99,10.4-1.27,18.27-5.81,23.63-13.62,3.6-5.18,5.46-10.64,5.59-16.39.13-5.75-1.49-10.99-4.87-15.73-3.38-4.74-8.4-8.34-15.07-10.79Z"/>
        <path d="M588.42,85.03c-5.31-2.98-11.12-4.48-17.44-4.48-7.02,0-13.32,1.56-18.89,4.67-5.57,3.12-9.92,7.42-13.03,12.9-3.12,5.49-4.67,11.69-4.67,18.63s1.56,13.16,4.67,18.69c3.11,5.53,7.52,9.87,13.23,13.03,5.7,3.16,12.37,4.74,20.01,4.74,5.79,0,11.43-1.43,16.92-4.28,5.48-2.85,10.07-6.78,13.75-11.78v-.2s-.04-.11-.13-.2l-12.9-8.82h-.2s-.11.05-.2.13c-2.37,3.25-5,5.73-7.9,7.44s-6.01,2.57-9.35,2.57c-4.92,0-9-.81-12.24-2.43-3.25-1.62-5.66-4.01-7.24-7.17-1.04-2.09-1.73-4.5-2.09-7.24h54.61c.09,0,.15-.02.2-.07.04-.04.07-.11.07-.2.17-8.77-1.32-16.21-4.48-22.31-3.16-6.1-7.39-10.64-12.7-13.62ZM551.87,107.54c.28-.78.59-1.53.94-2.24,1.58-3.16,3.88-5.55,6.91-7.17,3.03-1.62,6.78-2.44,11.25-2.44,3.86,0,7.22.86,10.07,2.57,2.85,1.71,5.09,4.48,6.71,8.29.14.32.26.65.38.99h-36.27Z"/>
        <path d="M671.48,85.03c-5.31-2.98-11.12-4.48-17.44-4.48-7.02,0-13.32,1.56-18.89,4.67-5.57,3.12-9.92,7.42-13.03,12.9-3.12,5.49-4.67,11.69-4.67,18.63s1.56,13.16,4.67,18.69c3.11,5.53,7.52,9.87,13.23,13.03,5.7,3.16,12.37,4.74,20.01,4.74,5.79,0,11.43-1.43,16.92-4.28,5.48-2.85,10.07-6.78,13.76-11.78v-.2s-.05-.11-.13-.2l-12.9-8.82h-.2s-.11.05-.2.13c-2.37,3.25-5,5.73-7.9,7.44-2.9,1.71-6.01,2.57-9.35,2.57-4.92,0-9-.81-12.24-2.43-3.25-1.62-5.66-4.01-7.24-7.17-1.04-2.09-1.73-4.5-2.09-7.24h54.61c.09,0,.15-.02.2-.07.04-.04.07-.11.07-.2.17-8.77-1.32-16.21-4.48-22.31-3.16-6.1-7.39-10.64-12.7-13.62ZM634.93,107.54c.28-.78.59-1.53.94-2.24,1.58-3.16,3.88-5.55,6.91-7.17,3.03-1.62,6.78-2.44,11.25-2.44,3.86,0,7.22.86,10.07,2.57,2.85,1.71,5.09,4.48,6.71,8.29.14.32.26.65.38.99h-36.27Z"/>
        <path d="M740.98,80.62s-.11-.07-.2-.07c-7.55,0-14.22,2.24-20.01,6.71-.45.35-.88.72-1.32,1.09v-6.09c0-.09-.02-.15-.07-.2-.04-.04-.11-.07-.2-.07h-16.32c-.09,0-.15.02-.2.07-.05.05-.07.11-.07.2v69.24c0,.09.02.15.07.2.04.05.11.07.2.07h16.32c.09,0,.15-.02.2-.07.04-.04.07-.11.07-.2v-33.17c0-5.35.74-9.59,2.24-12.7,1.49-3.11,3.79-5.35,6.91-6.71,3.11-1.36,7.17-2.04,12.18-2.04.09,0,.15-.02.2-.07s.07-.11.07-.2v-15.8c0-.09-.02-.15-.07-.2Z"/>
      </g>
      <g>
        <polygon points="157.4 0 86.02 72.32 14.65 0 0 15.6 86.02 100.2 172.05 15.6 157.4 0"/>
        <g>
          <path d="M140.74,58.29c2.34,6.3,3.68,13.09,3.68,20.2,0,32.2-26.19,58.39-58.39,58.39s-58.39-26.19-58.39-58.39c0-7.11,1.34-13.89,3.68-20.2l-12.85-12.64c-4.84,9.93-7.57,21.07-7.57,32.83,0,41.43,33.7,75.13,75.13,75.13s75.13-33.7,75.13-75.13c0-11.77-2.73-22.91-7.57-32.83l-12.85,12.64Z"/>
          <path d="M86.02,20.1c11.41,0,22.03,3.34,31.03,9.02l12-12.16c-12.2-8.56-27.03-13.6-43.03-13.6s-30.84,5.04-43.03,13.6l12,12.16c9-5.68,19.63-9.02,31.03-9.02Z"/>
        </g>
      </g>
    </g>
  </g>
</svg>