<svg width="572" height="126" viewBox="0 0 572 126" fill="none" xmlns="http://www.w3.org/2000/svg">
<g clip-path="url(#clip0_260_61)">
<path d="M174.879 107.647C169.399 104.598 165.046 100.348 161.829 94.8842C158.605 89.42 157 83.2765 157 76.4538C157 69.6311 158.612 63.5027 161.829 58.0762C165.054 52.6422 169.399 48.4082 174.879 45.3591C180.359 42.31 186.385 40.793 192.962 40.793C199.54 40.793 205.565 42.3175 211.046 45.3591C216.526 48.4082 220.841 52.6422 223.997 58.0762C227.153 63.5102 228.728 69.6311 228.728 76.4538C228.728 83.2765 227.131 89.42 223.944 94.8842C220.757 100.348 216.435 104.605 210.993 107.647C205.543 110.696 199.533 112.22 192.955 112.22C186.377 112.22 180.352 110.696 174.871 107.647H174.879ZM206.36 91.1559C209.714 87.4502 211.394 82.5444 211.394 76.4538C211.394 70.3632 209.714 65.3744 206.36 61.6989C203.007 58.0234 198.541 56.1818 192.962 56.1818C187.384 56.1818 182.812 58.0083 179.458 61.6461C176.105 65.2914 174.425 70.2273 174.425 76.4463C174.425 82.6652 176.098 87.5256 179.458 91.2012C182.812 94.8767 187.316 96.7182 192.962 96.7182C198.609 96.7182 203.007 94.8616 206.36 91.1559Z" fill="black"/>
<path d="M318.009 56.083L302.961 111.518H284.129L275.363 75.555L266.295 111.518H247.561L232.414 56.083H249.453L257.325 95.7213L266.689 56.083H284.727L294.196 95.525L301.97 56.083H318.009Z" fill="black"/>
<path d="M341.52 38V111.518H324.481V38H341.52Z" fill="black"/>
<path d="M365.439 109.73C361.39 108.077 358.15 105.624 355.728 102.379C353.306 99.1333 352.026 95.2238 351.89 90.6578H370.026C370.291 93.2389 371.185 95.2088 372.714 96.5673C374.243 97.9258 376.233 98.605 378.693 98.605C381.154 98.605 383.212 98.0239 384.673 96.8692C386.134 95.7069 386.868 94.1069 386.868 92.054C386.868 90.3332 386.286 88.9068 385.128 87.7822C383.962 86.6577 382.539 85.7294 380.843 84.9973C379.148 84.2728 376.741 83.4426 373.622 82.5143C369.103 81.1256 365.417 79.7293 362.563 78.3406C359.709 76.9519 357.249 74.8991 355.19 72.1821C353.132 69.465 352.102 65.9254 352.102 61.5555C352.102 55.0648 354.456 49.9855 359.18 46.3025C363.895 42.627 370.042 40.793 377.611 40.793C385.18 40.793 391.524 42.627 396.247 46.3025C400.963 49.978 403.483 55.095 403.816 61.6536H385.385C385.249 59.4045 384.424 57.6309 382.895 56.3403C381.365 55.0498 379.405 54.4007 377.013 54.4007C374.954 54.4007 373.289 54.9441 372.032 56.0384C370.768 57.1328 370.14 58.7026 370.14 60.7555C370.14 63.0046 371.2 64.7631 373.327 66.0235C375.454 67.2839 378.769 68.6424 383.288 70.099C387.807 71.6236 391.471 73.0802 394.302 74.4689C397.125 75.8576 399.562 77.8802 401.621 80.5293C403.68 83.1784 404.71 86.5898 404.71 90.7634C404.71 94.9371 403.695 98.3484 401.674 101.594C399.646 104.839 396.709 107.42 392.856 109.345C389.003 111.269 384.454 112.228 379.208 112.228C373.963 112.228 369.512 111.398 365.455 109.745L365.439 109.73Z" fill="black"/>
<path d="M467.263 87.872H428.705C428.97 91.3136 430.082 93.9476 432.043 95.7665C434.003 97.5929 436.41 98.4986 439.264 98.4986C443.51 98.4986 446.47 96.7099 448.135 93.1325H466.272C465.341 96.7778 463.66 100.053 461.238 102.967C458.816 105.88 455.773 108.167 452.124 109.819C448.468 111.48 444.389 112.303 439.87 112.303C434.42 112.303 429.575 111.14 425.321 108.823C421.067 106.506 417.752 103.193 415.36 98.891C412.968 94.5891 411.772 89.5551 411.772 83.789C411.772 78.0229 412.953 72.9964 415.307 68.6869C417.661 64.3849 420.969 61.0717 425.223 58.7547C429.477 56.4377 434.351 55.2754 439.87 55.2754C445.388 55.2754 450.035 56.3999 454.221 58.6566C458.407 60.9057 461.677 64.1208 464.039 68.2944C466.393 72.4681 467.574 77.3361 467.574 82.8984C467.574 84.4909 467.475 86.1437 467.271 87.8645L467.263 87.872ZM450.126 78.438C450.126 75.5247 449.127 73.2077 447.136 71.4869C445.145 69.7661 442.655 68.9058 439.665 68.9058C436.675 68.9058 434.397 69.736 432.444 71.3888C430.483 73.0417 429.272 75.3964 428.811 78.4455H450.134L450.126 78.438Z" fill="black"/>
<path d="M528.644 87.872H490.085C490.35 91.3136 491.463 93.9476 493.423 95.7665C495.384 97.5929 497.791 98.4986 500.645 98.4986C504.891 98.4986 507.851 96.7099 509.516 93.1325H527.652C526.721 96.7778 525.041 100.053 522.619 102.967C520.196 105.88 517.153 108.167 513.505 109.819C509.849 111.48 505.769 112.303 501.25 112.303C495.8 112.303 490.956 111.14 486.702 108.823C482.448 106.506 479.132 103.193 476.74 98.891C474.348 94.5891 473.152 89.5551 473.152 83.789C473.152 78.0229 474.333 72.9964 476.687 68.6869C479.041 64.3849 482.349 61.0717 486.603 58.7547C490.857 56.4377 495.732 55.2754 501.25 55.2754C506.768 55.2754 511.416 56.3999 515.602 58.6566C519.788 60.9057 523.058 64.1208 525.419 68.2944C527.773 72.4681 528.954 77.3361 528.954 82.8984C528.954 84.4909 528.856 86.1437 528.651 87.8645L528.644 87.872ZM511.507 78.438C511.507 75.5247 510.508 73.2077 508.517 71.4869C506.526 69.7661 504.036 68.9058 501.046 68.9058C498.056 68.9058 495.777 69.736 493.824 71.3888C491.864 73.0417 490.653 75.3964 490.191 78.4455H511.514L511.507 78.438Z" fill="black"/>
<path d="M562.419 58.1213C565.409 56.3703 568.732 55.4873 572.38 55.4873V73.4724H567.695C563.441 73.4724 560.254 74.3857 558.127 76.2046C556 78.031 554.94 81.2235 554.94 85.7896V111.518H537.901V56.0835H554.94V65.3214C556.931 62.2723 559.421 59.8723 562.411 58.1213H562.419Z" fill="black"/>
<path d="M113.02 2.41309L64.48 51.4591L15.94 2.41309L0 19.3334L64.48 82.5577L128.96 19.3334L113.02 2.41309Z" fill="black"/>
<path d="M108.66 50.8611C109.73 54.7298 110.31 58.7978 110.31 63.0055C110.31 88.2015 89.75 108.711 64.47 108.711C39.19 108.711 18.63 88.2114 18.63 63.0055C18.63 58.7978 19.21 54.7298 20.28 50.8611L6.68003 37.5303C3.21003 45.3274 1.28003 53.9421 1.28003 63.0055C1.28003 97.7435 29.62 126 64.46 126C99.3 126 127.64 97.7435 127.64 63.0055C127.64 53.9421 125.71 45.3274 122.24 37.5303L108.64 50.8611H108.66Z" fill="black"/>
<path d="M64.48 17.2992C71 17.2992 77.2 18.6752 82.82 21.128L95.62 8.19593C86.42 2.98125 75.8 0 64.48 0C53.16 0 42.54 2.98125 33.34 8.19593L46.14 21.128C51.76 18.6652 57.96 17.2992 64.48 17.2992Z" fill="black"/>
</g>
<defs>
<clipPath id="clip0_260_61">
<rect width="572" height="126" fill="white"/>
</clipPath>
</defs>
</svg>
