<?xml version="1.0" encoding="UTF-8"?>
<svg id="_图层_2" data-name="图层 2" xmlns="http://www.w3.org/2000/svg" viewBox="0 0 705.39 126.37">
  <g id="_图层_1-2" data-name="图层 1">
    <g>
      <g>
        <path d="M180.24,106.23c-7.24-4.04-12.99-9.67-17.24-16.91-4.26-7.24-6.38-15.38-6.38-24.42s2.13-17.16,6.38-24.35c4.26-7.2,10-12.81,17.24-16.85,7.24-4.04,15.2-6.05,23.89-6.05s16.65,2.02,23.89,6.05c7.24,4.04,12.94,9.65,17.11,16.85,4.17,7.2,6.25,15.31,6.25,24.35s-2.11,17.18-6.32,24.42-9.92,12.88-17.11,16.91c-7.2,4.04-15.14,6.06-23.83,6.06s-16.65-2.02-23.89-6.06ZM221.83,84.38c4.43-4.91,6.65-11.41,6.65-19.48s-2.22-14.68-6.65-19.55c-4.43-4.87-10.33-7.31-17.7-7.31s-13.41,2.42-17.84,7.24c-4.43,4.83-6.65,11.37-6.65,19.61s2.21,14.68,6.65,19.55c4.43,4.87,10.38,7.31,17.84,7.31s13.27-2.46,17.7-7.37Z"/>
        <path d="M369.33,37.91l-19.88,73.45h-24.88l-11.58-47.65-11.98,47.65h-24.75l-20.01-73.45h22.51l10.4,52.52,12.37-52.52h23.83l12.51,52.26,10.27-52.26h21.19Z"/>
        <path d="M400.39,13.95v97.41h-22.51V13.95h22.51Z"/>
        <path d="M431.99,108.99c-5.35-2.19-9.63-5.44-12.83-9.74-3.2-4.3-4.89-9.48-5.07-15.53h23.96c.35,3.42,1.53,6.03,3.55,7.83,2.02,1.8,4.65,2.7,7.9,2.7s5.97-.77,7.9-2.3c1.93-1.54,2.9-3.66,2.9-6.38,0-2.28-.77-4.17-2.3-5.66-1.54-1.49-3.42-2.72-5.66-3.69-2.24-.96-5.42-2.06-9.54-3.29-5.97-1.84-10.84-3.69-14.61-5.53-3.77-1.84-7.02-4.56-9.74-8.16-2.72-3.6-4.08-8.29-4.08-14.08,0-8.6,3.11-15.33,9.35-20.21,6.23-4.87,14.35-7.3,24.35-7.3s18.38,2.43,24.62,7.3c6.23,4.87,9.56,11.65,10,20.34h-24.35c-.18-2.98-1.27-5.33-3.29-7.04-2.02-1.71-4.61-2.57-7.77-2.57-2.72,0-4.92.72-6.58,2.17-1.67,1.45-2.5,3.53-2.5,6.25,0,2.98,1.4,5.31,4.21,6.98,2.81,1.67,7.19,3.47,13.16,5.4,5.97,2.02,10.81,3.95,14.55,5.79,3.73,1.84,6.95,4.52,9.67,8.03,2.72,3.51,4.08,8.03,4.08,13.56s-1.34,10.05-4.01,14.35c-2.68,4.3-6.56,7.72-11.65,10.27-5.09,2.55-11.1,3.82-18.03,3.82s-12.81-1.1-18.17-3.29Z"/>
        <path d="M566.51,80.03h-50.94c.35,4.56,1.82,8.05,4.41,10.46,2.59,2.42,5.77,3.62,9.54,3.62,5.61,0,9.52-2.37,11.72-7.11h23.96c-1.23,4.83-3.45,9.17-6.65,13.03-3.2,3.86-7.22,6.89-12.04,9.08-4.83,2.2-10.22,3.29-16.19,3.29-7.2,0-13.6-1.54-19.22-4.61-5.62-3.07-10-7.46-13.16-13.16-3.16-5.7-4.74-12.37-4.74-20.01s1.56-14.3,4.67-20.01c3.11-5.7,7.48-10.09,13.1-13.16,5.62-3.07,12.06-4.61,19.35-4.61s13.43,1.49,18.96,4.48c5.53,2.98,9.85,7.24,12.97,12.77,3.11,5.53,4.67,11.98,4.67,19.35,0,2.11-.13,4.3-.4,6.58ZM543.87,67.53c0-3.86-1.32-6.93-3.95-9.21-2.63-2.28-5.92-3.42-9.87-3.42s-6.96,1.1-9.54,3.29c-2.59,2.19-4.19,5.31-4.8,9.35h28.17Z"/>
        <path d="M647.6,80.03h-50.94c.35,4.56,1.82,8.05,4.41,10.46,2.59,2.42,5.77,3.62,9.54,3.62,5.61,0,9.52-2.37,11.72-7.11h23.96c-1.23,4.83-3.45,9.17-6.65,13.03-3.2,3.86-7.22,6.89-12.04,9.08-4.83,2.2-10.22,3.29-16.19,3.29-7.2,0-13.6-1.54-19.22-4.61-5.62-3.07-10-7.46-13.16-13.16-3.16-5.7-4.74-12.37-4.74-20.01s1.56-14.3,4.67-20.01c3.11-5.7,7.48-10.09,13.1-13.16,5.62-3.07,12.06-4.61,19.35-4.61s13.43,1.49,18.96,4.48c5.53,2.98,9.85,7.24,12.97,12.77,3.11,5.53,4.67,11.98,4.67,19.35,0,2.11-.13,4.3-.4,6.58ZM624.96,67.53c0-3.86-1.32-6.93-3.95-9.21-2.63-2.28-5.92-3.42-9.87-3.42s-6.96,1.1-9.54,3.29c-2.59,2.19-4.19,5.31-4.8,9.35h28.17Z"/>
        <path d="M692.22,40.61c3.95-2.32,8.34-3.49,13.16-3.49v23.83h-6.19c-5.62,0-9.83,1.21-12.64,3.62-2.81,2.42-4.21,6.65-4.21,12.7v34.09h-22.51V37.91h22.51v12.24c2.63-4.04,5.92-7.22,9.87-9.54Z"/>
      </g>
      <g>
        <polygon points="113.02 2.42 64.48 51.61 15.94 2.42 0 19.39 64.48 82.8 128.96 19.39 113.02 2.42"/>
        <g>
          <path d="M108.66,51.01c1.07,3.88,1.65,7.96,1.65,12.18,0,25.27-20.56,45.84-45.84,45.84s-45.84-20.56-45.84-45.84c0-4.22.58-8.3,1.65-12.18l-13.6-13.37c-3.47,7.82-5.4,16.46-5.4,25.55,0,34.84,28.34,63.18,63.18,63.18s63.18-28.34,63.18-63.18c0-9.09-1.93-17.73-5.4-25.55l-13.6,13.37Z"/>
          <path d="M64.48,17.35c6.52,0,12.72,1.38,18.34,3.84l12.8-12.97C86.42,2.99,75.8,0,64.48,0s-21.94,2.99-31.14,8.22l12.8,12.97c5.62-2.47,11.82-3.84,18.34-3.84Z"/>
        </g>
      </g>
    </g>
  </g>
</svg>