<svg width="129" height="126" viewBox="0 0 129 126" fill="none" xmlns="http://www.w3.org/2000/svg">
<g clip-path="url(#clip0_259_52)">
<path d="M113.02 2.41309L64.48 51.4591L15.94 2.41309L0 19.3334L64.48 82.5577L128.96 19.3334L113.02 2.41309Z" fill="black"/>
<path d="M108.66 50.8611C109.73 54.7298 110.31 58.7978 110.31 63.0055C110.31 88.2015 89.75 108.711 64.47 108.711C39.19 108.711 18.63 88.2114 18.63 63.0055C18.63 58.7978 19.21 54.7298 20.28 50.8611L6.68 37.5303C3.21 45.3274 1.28 53.9421 1.28 63.0055C1.28 97.7435 29.62 126 64.46 126C99.3 126 127.64 97.7435 127.64 63.0055C127.64 53.9421 125.71 45.3274 122.24 37.5303L108.64 50.8611H108.66Z" fill="black"/>
<path d="M64.48 17.2992C71 17.2992 77.2 18.6752 82.82 21.128L95.62 8.19593C86.42 2.98125 75.8 0 64.48 0C53.16 0 42.54 2.98125 33.34 8.19593L46.14 21.128C51.76 18.6652 57.96 17.2992 64.48 17.2992Z" fill="black"/>
</g>
<defs>
<clipPath id="clip0_259_52">
<rect width="129" height="126" fill="white"/>
</clipPath>
</defs>
</svg>
